<?xml version="1.0" encoding="UTF-8" standalone="no"?>
<!-- Created with Inkscape (http://www.inkscape.org/) -->

<svg
   xmlns:dc="http://purl.org/dc/elements/1.1/"
   xmlns:cc="http://creativecommons.org/ns#"
   xmlns:rdf="http://www.w3.org/1999/02/22-rdf-syntax-ns#"
   xmlns:svg="http://www.w3.org/2000/svg"
   xmlns="http://www.w3.org/2000/svg"
   xmlns:sodipodi="http://sodipodi.sourceforge.net/DTD/sodipodi-0.dtd"
   xmlns:inkscape="http://www.inkscape.org/namespaces/inkscape"
   width="64px"
   height="64px"
   id="svg3018"
   version="1.1"
   inkscape:version="0.91 r13725"
   sodipodi:docname="triangle_hollow_333333_black.svg">
  <defs
     id="defs3020" />
  <sodipodi:namedview
     id="base"
     pagecolor="#ffffff"
     bordercolor="#666666"
     borderopacity="1.0"
     inkscape:pageopacity="0.0"
     inkscape:pageshadow="2"
     inkscape:zoom="5.5"
     inkscape:cx="-2.4545458"
     inkscape:cy="29.636364"
     inkscape:current-layer="layer1"
     showgrid="true"
     inkscape:document-units="px"
     inkscape:grid-bbox="true"
     inkscape:window-width="928"
     inkscape:window-height="751"
     inkscape:window-x="487"
     inkscape:window-y="210"
     inkscape:window-maximized="0" />
  <metadata
     id="metadata3023">
    <rdf:RDF>
      <cc:Work
         rdf:about="">
        <dc:format>image/svg+xml</dc:format>
        <dc:type
           rdf:resource="http://purl.org/dc/dcmitype/StillImage" />
        <dc:title></dc:title>
      </cc:Work>
    </rdf:RDF>
  </metadata>
  <g
     id="layer1"
     inkscape:label="Layer 1"
     inkscape:groupmode="layer">
    <path
       sodipodi:type="star"
       style="fill:none;fill-opacity:1;stroke:#333333;stroke-opacity:1;stroke-width:3;stroke-miterlimit:4;stroke-dasharray:none"
       id="path3796"
       sodipodi:sides="3"
       sodipodi:cx="29.272726"
       sodipodi:cy="16.909092"
       sodipodi:r1="18.808298"
       sodipodi:r2="9.4041491"
       sodipodi:arg1="2.6260436"
       sodipodi:arg2="3.6732412"
       inkscape:flatsided="false"
       inkscape:rounded="0"
       inkscape:randomized="0"
       d="M 12.90909,26.18182 21.166608,12.141611 29.424126,-1.8985968 37.454544,12.272728 45.484962,26.444053 29.197026,26.312936 z"
       inkscape:transform-center-x="0.075700401"
       inkscape:transform-center-y="-4.6363636"
       transform="translate(2.9090909,19.090909)" />
    <path
       style="fill:#696969;stroke:none;stroke-width:1px;stroke-linecap:butt;stroke-linejoin:miter;stroke-opacity:1;fill-opacity:0"
       d="m 31.502454,45.329691 c -8.383651,-0.0753 -15.28333,-0.177233 -15.33262,-0.226524 -0.103637,-0.103636 15.972679,-27.555506 16.144179,-27.567753 0.06271,-0.0045 3.574365,6.107768 7.803685,13.582768 4.22932,7.475 7.807878,13.775 7.952353,14 0.25878,0.403018 0.2509,0.40864 -0.530958,0.378753 -0.436502,-0.01669 -7.652989,-0.09195 -16.036639,-0.167244 z"
       id="path3334"
       inkscape:connector-curvature="0" />
    <path
       style="fill:#696969;stroke:none;stroke-width:1px;stroke-linecap:butt;stroke-linejoin:miter;stroke-opacity:1;fill-opacity:0"
       d="m 32.619058,45.318124 c -0.230482,-0.06503 -3.446331,-0.126979 -7.146331,-0.137657 -3.7,-0.01068 -7.276241,-0.07126 -7.947203,-0.134638 l -1.219931,-0.115224 0.42903,-0.74712 c 1.55338,-2.705085 10.343203,-17.736348 12.61073,-21.565303 1.510122,-2.55 2.842152,-4.636364 2.960065,-4.636364 0.228891,0 0.860389,1.083095 9.911842,17 l 5.841784,10.272727 -0.565886,0.04033 c -1.493634,0.106449 -14.507137,0.126789 -14.8741,0.02325 z"
       id="path4136"
       inkscape:connector-curvature="0" />
    <path
       style="fill:#696969;fill-opacity:0"
       d="m 32.988015,45.345455 c -0.04977,-0.05 -3.758867,-0.131819 -8.24244,-0.181819 -4.483572,-0.05 -8.202479,-0.141509 -8.264237,-0.203354 -0.06176,-0.06184 0.800691,-1.698207 1.916553,-3.636364 3.925425,-6.818117 13.170738,-22.534748 13.70357,-23.295472 0.217022,-0.309843 0.304124,-0.224467 1.008936,0.988945 2.711539,4.668209 14.911959,26.202553 14.869158,26.244798 -0.09508,0.09384 -14.899168,0.176066 -14.99154,0.08327 z"
       id="path4138"
       inkscape:connector-curvature="0" />
    <path
       style="fill:#696969;fill-opacity:0"
       d="m 32.988015,45.345455 c -0.04977,-0.05 -3.758867,-0.131819 -8.24244,-0.181819 -4.483572,-0.05 -8.202479,-0.141509 -8.264237,-0.203354 -0.06176,-0.06184 0.800691,-1.698207 1.916553,-3.636364 3.925425,-6.818117 13.170738,-22.534748 13.70357,-23.295472 0.217022,-0.309843 0.304124,-0.224467 1.008936,0.988945 2.711539,4.668209 14.911959,26.202553 14.869158,26.244798 -0.09508,0.09384 -14.899168,0.176066 -14.99154,0.08327 z"
       id="path4140"
       inkscape:connector-curvature="0" />
    <path
       style="fill:#696969;fill-opacity:0"
       d="m 32.988015,45.345455 c -0.04977,-0.05 -3.758867,-0.131819 -8.24244,-0.181819 -4.483572,-0.05 -8.202479,-0.141509 -8.264237,-0.203354 -0.06176,-0.06184 0.800691,-1.698207 1.916553,-3.636364 3.925425,-6.818117 13.170738,-22.534748 13.70357,-23.295472 0.217022,-0.309843 0.304124,-0.224467 1.008936,0.988945 2.711539,4.668209 14.911959,26.202553 14.869158,26.244798 -0.09508,0.09384 -14.899168,0.176066 -14.99154,0.08327 z"
       id="path4142"
       inkscape:connector-curvature="0" />
    <path
       style="fill:#696969;fill-opacity:0;stroke:none;stroke-opacity:1"
       d="m 32.988015,45.345455 c -0.04977,-0.05 -3.758867,-0.131819 -8.24244,-0.181819 -4.483572,-0.05 -8.202479,-0.141509 -8.264237,-0.203354 -0.06176,-0.06184 0.800691,-1.698207 1.916553,-3.636364 3.925425,-6.818117 13.170738,-22.534748 13.70357,-23.295472 0.217022,-0.309843 0.304124,-0.224467 1.008936,0.988945 2.711539,4.668209 14.911959,26.202553 14.869158,26.244798 -0.09508,0.09384 -14.899168,0.176066 -14.99154,0.08327 z"
       id="path4144"
       inkscape:connector-curvature="0" />
    <path
       style="opacity:0;fill:#696969;fill-opacity:0;stroke:none;stroke-opacity:1"
       d="m 32.988015,45.345455 c -0.04977,-0.05 -3.758867,-0.131819 -8.24244,-0.181819 -4.483572,-0.05 -8.202479,-0.141509 -8.264237,-0.203354 -0.06176,-0.06184 0.800691,-1.698207 1.916553,-3.636364 3.925425,-6.818117 13.170738,-22.534748 13.70357,-23.295472 0.217022,-0.309843 0.304124,-0.224467 1.008936,0.988945 2.711539,4.668209 14.911959,26.202553 14.869158,26.244798 -0.09508,0.09384 -14.899168,0.176066 -14.99154,0.08327 z"
       id="path4146"
       inkscape:connector-curvature="0" />
    <path
       style="opacity:0;fill:#696969;fill-opacity:0;stroke:none;stroke-opacity:1"
       d="m 32.988015,45.345455 c -0.04977,-0.05 -3.758867,-0.131819 -8.24244,-0.181819 -4.483572,-0.05 -8.202479,-0.141509 -8.264237,-0.203354 -0.06176,-0.06184 0.800691,-1.698207 1.916553,-3.636364 3.925425,-6.818117 13.170738,-22.534748 13.70357,-23.295472 0.217022,-0.309843 0.304124,-0.224467 1.008936,0.988945 2.711539,4.668209 14.911959,26.202553 14.869158,26.244798 -0.09508,0.09384 -14.899168,0.176066 -14.99154,0.08327 z"
       id="path4148"
       inkscape:connector-curvature="0" />
    <path
       style="opacity:0;fill:#696969;fill-opacity:0;stroke:none;stroke-opacity:1"
       d="m 32.988015,45.345455 c -0.04977,-0.05 -3.758867,-0.131819 -8.24244,-0.181819 -4.483572,-0.05 -8.202479,-0.141509 -8.264237,-0.203354 -0.06176,-0.06184 0.800691,-1.698207 1.916553,-3.636364 3.925425,-6.818117 13.170738,-22.534748 13.70357,-23.295472 0.217022,-0.309843 0.304124,-0.224467 1.008936,0.988945 2.711539,4.668209 14.911959,26.202553 14.869158,26.244798 -0.09508,0.09384 -14.899168,0.176066 -14.99154,0.08327 z"
       id="path4150"
       inkscape:connector-curvature="0" />
    <path
       style="opacity:0;fill:#696969;fill-opacity:0;stroke:none;stroke-opacity:1"
       d="m 32.988015,45.345455 c -0.04977,-0.05 -3.758867,-0.131819 -8.24244,-0.181819 -4.483572,-0.05 -8.202479,-0.141509 -8.264237,-0.203354 -0.06176,-0.06184 0.800691,-1.698207 1.916553,-3.636364 3.925425,-6.818117 13.170738,-22.534748 13.70357,-23.295472 0.217022,-0.309843 0.304124,-0.224467 1.008936,0.988945 2.711539,4.668209 14.911959,26.202553 14.869158,26.244798 -0.09508,0.09384 -14.899168,0.176066 -14.99154,0.08327 z"
       id="path4152"
       inkscape:connector-curvature="0" />
  </g>
</svg>
